<svg width="64" height="64" viewBox="0 0 64 64" fill="none" xmlns="http://www.w3.org/2000/svg">
<path d="M56.8889 0C58.7749 0 60.5836 0.749204 61.9172 2.0828C63.2508 3.41639 64 5.22513 64 7.11111V56.8889C64 58.7749 63.2508 60.5836 61.9172 61.9172C60.5836 63.2508 58.7749 64 56.8889 64H7.11111C5.22513 64 3.41639 63.2508 2.0828 61.9172C0.749204 60.5836 0 58.7749 0 56.8889V7.11111C0 5.22513 0.749204 3.41639 2.0828 2.0828C3.41639 0.749204 5.22513 0 7.11111 0H56.8889ZM55.1111 55.1111V36.2667C55.1111 33.1925 53.8899 30.2443 51.7162 28.0705C49.5424 25.8968 46.5942 24.6756 43.52 24.6756C40.4978 24.6756 36.9778 26.5244 35.2711 29.2978V25.3511H25.3511V55.1111H35.2711V37.5822C35.2711 34.8444 37.4756 32.6044 40.2133 32.6044C41.5335 32.6044 42.7996 33.1289 43.7332 34.0624C44.6667 34.9959 45.1911 36.262 45.1911 37.5822V55.1111H55.1111ZM13.7956 19.7689C15.3798 19.7689 16.8991 19.1396 18.0193 18.0193C19.1396 16.8991 19.7689 15.3798 19.7689 13.7956C19.7689 10.4889 17.1022 7.78667 13.7956 7.78667C12.2019 7.78667 10.6735 8.41974 9.54663 9.54663C8.41974 10.6735 7.78667 12.2019 7.78667 13.7956C7.78667 17.1022 10.4889 19.7689 13.7956 19.7689ZM18.7378 55.1111V25.3511H8.88889V55.1111H18.7378Z" fill="url(#paint0_linear_167_247)"/>
<defs>
<linearGradient id="paint0_linear_167_247" x1="62.9213" y1="62.9259" x2="5.09324" y2="5.1015" gradientUnits="userSpaceOnUse">
<stop stop-color="#90DDF5"/>
<stop offset="0.526" stop-color="#F5B8D3"/>
<stop offset="1" stop-color="#8068A8"/>
</linearGradient>
</defs>
</svg>
