<?xml version="1.0" encoding="utf-8"?>
<!-- Generator: Adobe Illustrator 25.4.1, SVG Export Plug-In . SVG Version: 6.00 Build 0)  -->
<svg version="1.1" id="Слой_1" xmlns="http://www.w3.org/2000/svg" xmlns:xlink="http://www.w3.org/1999/xlink" x="0px" y="0px"
	 viewBox="0 0 1982.32 471.29" style="enable-background:new 0 0 1982.32 471.29;" xml:space="preserve">
<style type="text/css">
	.st0{fill:#FFFFFF;}
	.st1{fill:#2B2B2B;}
	.st2{fill:#4D4D4D;}
	.st3{fill:#808080;}
	.st4{fill:url(#SVGID_1_);}
	.st5{fill:url(#SVGID_00000181778935861145800860000002398451113086769795_);}
</style>
<g>
	<g>
		<g>
			<g>
				<path class="st0" d="M606.26,280.18c-14.7-15.92-22.05-35.53-22.05-58.96s7.35-43.03,22.05-58.8
					c14.71-15.92,32.31-23.89,52.98-23.89c20.98,0,36.45,6.43,46.55,19.14v-19.14h47.01v165.07H705.8v-18.68
					c-10.11,12.71-25.57,18.99-46.55,18.99C638.57,303.92,620.97,295.95,606.26,280.18z M705.8,221.23
					c0-23.43-12.41-36.14-37.21-38.13c-21.59,0-34.15,12.71-37.36,38.13c0,23.43,12.4,36.29,37.36,38.28
					C690.18,259.51,702.58,246.8,705.8,221.23z"/>
				<path class="st0" d="M818.19,303.46h-47.01V74.68l47.01,23.12V303.46z"/>
				<g>
					<path class="st0" d="M1116.26,303.46h-43.79l-25.12-83.61l-24.96,83.61h-43.95L928.37,146.8h50.08l22.51,84.07l24.51-84.07
						h43.95l24.35,84.07l22.51-84.07h50.23L1116.26,303.46z"/>
					<path class="st0" d="M1206.91,280.18c-14.71-15.92-22.06-35.53-22.06-58.96s7.35-43.03,22.06-58.8
						c14.7-15.92,32.31-23.89,52.98-23.89c20.97,0,36.44,6.43,46.55,19.14v-19.14h47.01v165.07h-47.01v-18.68
						c-10.11,12.71-25.57,18.99-46.55,18.99C1239.22,303.92,1221.61,295.95,1206.91,280.18z M1306.44,221.23
						c0-23.43-12.4-36.14-37.21-38.13c-21.59,0-34.14,12.71-37.36,38.13c0,23.43,12.41,36.29,37.36,38.28
						C1290.82,259.51,1303.23,246.8,1306.44,221.23z"/>
					<path class="st0" d="M1387.44,307.9v-41.35h44.41c11.33,0,17-3.52,17-10.41c0-6.13-9.8-9.04-22.82-12.56
						c-12.25-2.6-24.35-7.2-36.3-13.78c-11.94-6.59-17.92-18.68-17.92-35.99c0-17,6.12-29.86,18.38-38.44
						c12.4-8.58,26.64-12.86,43.03-12.86h44.4v41.34h-44.4c-8.12,0-12.56,2.91-13.17,8.73c0,6.28,9.5,9.19,22.35,12.25
						c12.26,2.45,24.35,7.05,36.45,13.78c12.1,6.59,18.22,19.3,18.22,37.83c0,18.07-6.58,31.24-19.91,39.35
						c-13.32,8.11-28.33,12.1-45.33,12.1H1387.44z"/>
					<path class="st0" d="M1515.44,221.23c0-23.43,7.66-43.03,23.12-58.8c15.47-15.92,35.53-23.89,60.18-23.89
						c22.96,0,41.95,7.81,56.96,23.58c15.16,15.77,22.66,35.37,22.66,59.11c0,6.59-0.61,12.86-1.84,18.83h-111.32
						c7.81,14.55,20.36,21.9,37.67,21.9c12.86,0,22.82-3.98,30.01-11.95l37.67,21.75c-15.77,21.44-38.43,32.15-68.29,32.15
						C1548.67,303.92,1519.73,276.35,1515.44,221.23z M1631.68,205c-2.61-9.04-7.05-15.31-13.32-19.14
						c-6.28-3.83-12.87-5.67-19.91-5.67c-17.92,0-29.25,8.27-34.15,24.81H1631.68z"/>
					<path class="st0" d="M1696.74,221.23c0-23.43,7.66-43.03,23.12-58.8c15.46-15.92,35.53-23.89,60.17-23.89
						c22.97,0,41.96,7.81,56.96,23.58c15.16,15.77,22.67,35.37,22.67,59.11c0,6.59-0.61,12.86-1.84,18.83H1746.5
						c7.81,14.55,20.37,21.9,37.67,21.9c12.87,0,22.82-3.98,30.02-11.95l37.67,21.75c-15.77,21.44-38.44,32.15-68.3,32.15
						C1729.97,303.92,1701.03,276.35,1696.74,221.23z M1812.96,205c-2.6-9.04-7.05-15.31-13.32-19.14
						c-6.28-3.83-12.86-5.67-19.91-5.67c-17.92,0-29.25,8.27-34.14,24.81H1812.96z"/>
					<path class="st0" d="M1903.15,247.41v-55.44h-25.12V146.8h25.12V117.1l47.01-14.09v43.8h32.15v45.17h-32.15v55.44
						c0,6.74,2.75,10.87,8.27,12.4c3.68,1.08,8.27,1.53,13.93,1.53c3.07,0,6.44-0.15,9.95-0.46v42.57
						c-6.89,0.77-13.16,1.22-19.13,1.22C1923.21,304.68,1903.15,285.54,1903.15,247.41z"/>
				</g>
			</g>
		</g>
		<g>
			<rect x="1698.72" y="437.06" class="st0" width="15.38" height="15.38"/>
			<rect x="1722.11" y="437.06" class="st0" width="15.38" height="15.38"/>
			<path class="st0" d="M1834.74,397.18c0,11.27-9.16,20.43-20.43,20.43h-5.91v-28.12h-14.24v28.12h-20.79v-28.12h-14.24v28.12
				h-29.33c-2.51,0-4.55-2.04-4.55-4.56v-40.65h-14.24v40.65c0,2.47-2.12,4.56-4.62,4.56h-25.71l-0.02-24.97
				c0.1-1.32,0.83-13.16-7.37-22.06c-5.41-5.87-13.13-8.85-22.93-8.85c-16.08,0-30.69,10.9-40.58,20.71v-54.6h-14.24v89.77h-16.8
				v14.24h127.64c4.45,0,8.5-1.61,11.73-4.19c3.22,2.58,7.25,4.19,11.68,4.19h36.45h35.02h13.03c19.12,0,34.67-15.55,34.67-34.67
				v-22.85h-14.24V397.18z M1609.79,404.03c6.82-9.2,24.18-28.06,40.58-28.06c5.62,0,9.8,1.41,12.4,4.19
				c4.12,4.4,3.72,11.3,3.69,11.9v25.56h-56.66V404.03z"/>
			<rect x="1968.08" y="327.84" class="st0" width="14.24" height="101.79"/>
			<path class="st0" d="M1938.38,416.19h-32.4v-17.31c0-14-11.39-25.39-25.39-25.39s-25.4,11.39-25.4,25.39v5.37
				c0,14,11.39,25.39,25.4,25.39h11.3v2.85c0,5.93-1.24,11.2-3.66,15.61c-4.98,8.94-10.59,8.94-12.43,8.94v14.24
				c7.22,0,17.39-2.82,24.89-16.3c3.6-6.57,5.43-14.14,5.43-22.5v-2.06h39.37c3.93,0,7.12-3.19,7.12-7.12v-95.46h-14.24V416.19z
				 M1891.75,415.4h-11.15c-6.15,0-11.16-5.01-11.16-11.15v-5.37c0-6.15,5.01-11.15,11.16-11.15c6.15,0,11.15,5.01,11.15,11.15
				V415.4z"/>
		</g>
	</g>
	<path class="st0" d="M471.26,235.64c0-2.34,0.01-4.67-0.06-7.03C467.59,104.98,367.51,4.38,243.9,0.14
		C107.77-4.52-4.02,106.94,0.11,242.93c3.73,123.03,102.92,223.22,225.91,228.16c0.84,0.03,1.69,0.06,2.53,0.09
		c47.81,1.42,87.32-36.99,87.32-84.83v-57.33c-22.74,19.57-52.72,30.99-85.28,29.67c-63.56-2.57-115.25-54.08-117.99-117.64
		c-3.03-70.26,53.16-128.38,122.71-128.58c68.49-0.19,123.51,56.7,123.51,125.19V358.8c0,23.76,7.36,45.81,19.96,63.95
		c3.85,5.58,8.2,10.8,12.99,15.58c20.35,20.35,48.47,32.95,79.54,32.95V235.64H471.26z"/>
</g>
</svg>
