<?xml version="1.0" encoding="utf-8"?>
<!-- Generator: Adobe Illustrator 27.0.1, SVG Export Plug-In . SVG Version: 6.00 Build 0)  -->
<svg fill="current" version="1.1" id="a" xmlns="http://www.w3.org/2000/svg" xmlns:xlink="http://www.w3.org/1999/xlink" x="0px" y="0px"
	 viewBox="0 0 258.7 463.7" style="enable-background:new 0 0 258.7 463.7;" xml:space="preserve">
<path d="M231.8,463.7c-7.2,0-14-2.8-19.1-7.9L7.9,250.9c-10.5-10.5-10.5-27.6,0-38.2L212.7,7.9c5.1-5.1,11.9-7.9,19.1-7.9
	s14,2.8,19.1,7.9c5.1,5.1,7.9,11.9,7.9,19.1s-2.8,14-7.9,19.1L65.2,231.8l185.7,185.7c5.1,5.1,7.9,11.9,7.9,19.1s-2.8,14-7.9,19.1
	S239,463.7,231.8,463.7z"/>
<path d="M239.6,428.9c4.3,4.3,4.3,11.3,0,15.5c-4.3,4.3-11.3,4.3-15.6,0L19.2,239.6c-4.3-4.3-4.3-11.2,0-15.6L224.1,19.2
	c4.3-4.3,11.3-4.3,15.6,0c2.1,2.1,3.2,5,3.2,7.8s-1.1,5.6-3.2,7.8l-197.2,197L239.6,428.9z"/>
</svg>
